<svg width="16" height="16" viewBox="0 0 14 14" fill="none" xmlns="http://www.w3.org/2000/svg">
<path d="M6.43268 7.56728H1.0673C0.906566 7.56728 0.771833 7.51244 0.6631 7.40278C0.554366 7.29309 0.5 7.15719 0.5 6.99507C0.5 6.83296 0.554366 6.6987 0.6631 6.5923C0.771833 6.48588 0.906566 6.43268 1.0673 6.43268H6.43268V1.0673C6.43268 0.906567 6.48751 0.771835 6.59718 0.663101C6.70686 0.554368 6.84276 0.5 7.00488 0.5C7.16699 0.5 7.30125 0.554368 7.40765 0.663101C7.51407 0.771835 7.56728 0.906567 7.56728 1.0673V6.43268H12.9327C13.0934 6.43268 13.2281 6.48751 13.3369 6.59718C13.4456 6.70686 13.5 6.84276 13.5 7.00488C13.5 7.16699 13.4456 7.30125 13.3369 7.40765C13.2281 7.51407 13.0934 7.56728 12.9327 7.56728H7.56728V12.9326C7.56728 13.0934 7.51244 13.2281 7.40278 13.3368C7.29309 13.4456 7.15719 13.5 6.99508 13.5C6.83296 13.5 6.6987 13.4456 6.5923 13.3368C6.48588 13.2281 6.43268 13.0934 6.43268 12.9326V7.56728Z" fill="black"/>
</svg>
