<svg width="7" height="11" viewBox="0 0 7 11" fill="none" xmlns="http://www.w3.org/2000/svg">
<path d="M4.44665 5.50047L0.373576 1.42737C0.235109 1.28892 0.164276 1.11489 0.161076 0.905275C0.157859 0.695675 0.228692 0.518441 0.373576 0.373575C0.518442 0.228691 0.694075 0.15625 0.900475 0.15625C1.10688 0.15625 1.28251 0.228691 1.42738 0.373575L5.9216 4.8678C6.0152 4.96138 6.08123 5.0601 6.11968 5.16395C6.15814 5.26778 6.17738 5.37996 6.17738 5.50047C6.17738 5.62099 6.15814 5.73317 6.11968 5.837C6.08123 5.94085 6.0152 6.03957 5.9216 6.13315L1.42738 10.6274C1.28893 10.7658 1.11489 10.8367 0.905275 10.8399C0.695675 10.8431 0.518442 10.7723 0.373576 10.6274C0.228692 10.4825 0.15625 10.3069 0.15625 10.1005C0.15625 9.89407 0.228692 9.71844 0.373576 9.57358L4.44665 5.50047Z" fill="#007D76"/>
</svg>
