<svg width="17" height="17" viewBox="0 0 17 17" fill="none" xmlns="http://www.w3.org/2000/svg">
<path d="M6.12576 12.1061C4.42936 12.1061 2.99276 11.518 1.81598 10.3417C0.639181 9.16546 0.0507812 7.74046 0.0507812 6.06674C0.0507812 4.39304 0.638923 2.96805 1.81521 1.79177C2.99147 0.615484 4.4183 0.0273438 6.09568 0.0273438C7.77306 0.0273438 9.19966 0.615484 10.3755 1.79177C11.5513 2.96805 12.1392 4.39313 12.1392 6.06702C12.1392 6.76748 12.0193 7.44944 11.7796 8.11289C11.5398 8.77636 11.193 9.37732 10.7392 9.91577L16.8277 15.9639C16.9392 16.068 16.9966 16.2046 16.9998 16.3737C17.003 16.5428 16.9456 16.6847 16.8277 16.7994C16.7097 16.9142 16.5678 16.9715 16.4019 16.9715C16.236 16.9715 16.0978 16.9125 15.9873 16.7946L9.92383 10.7311C9.42636 11.1714 8.84628 11.5106 8.18358 11.7488C7.52088 11.987 6.83494 12.1061 6.12576 12.1061ZM6.11038 10.9716C7.4763 10.9716 8.63348 10.4956 9.58193 9.54367C10.5304 8.59175 11.0046 7.43278 11.0046 6.06674C11.0046 4.70073 10.5304 3.54175 9.58193 2.58982C8.63348 1.6379 7.4763 1.16194 6.11038 1.16194C4.73591 1.16194 3.57146 1.6379 2.61703 2.58982C1.6626 3.54175 1.18538 4.70073 1.18538 6.06674C1.18538 7.43278 1.6626 8.59175 2.61703 9.54367C3.57146 10.4956 4.73591 10.9716 6.11038 10.9716Z" fill="#90949A"/>
</svg>
