<svg width="7" height="11" viewBox="0 0 7 11" fill="none" xmlns="http://www.w3.org/2000/svg">
<path d="M1.95338 5.49966L6.02646 9.57276C6.16492 9.71121 6.23576 9.88525 6.23896 10.0949C6.24217 10.3045 6.17134 10.4817 6.02646 10.6266C5.88159 10.7714 5.70596 10.8439 5.49956 10.8439C5.29316 10.8439 5.11752 10.7714 4.97266 10.6266L0.478431 6.13234C0.384831 6.03875 0.318806 5.94004 0.280356 5.83619C0.241889 5.73235 0.222656 5.62018 0.222656 5.49966C0.222656 5.37914 0.241889 5.26697 0.280356 5.16314C0.318806 5.05929 0.384831 4.96057 0.478431 4.86699L4.97266 0.372761C5.11111 0.234294 5.28514 0.163461 5.49476 0.160261C5.70436 0.157044 5.88159 0.227878 6.02646 0.372761C6.17134 0.517628 6.24378 0.693261 6.24378 0.899661C6.24378 1.10606 6.17134 1.28169 6.02646 1.42656L1.95338 5.49966Z" fill="#007D76"/>
</svg>
