<svg width="18" height="20" viewBox="0 0 18 20" fill="none" xmlns="http://www.w3.org/2000/svg">
<path d="M1.94232 19.5001C1.55017 19.5001 1.21175 19.3577 0.92705 19.073C0.64235 18.7883 0.5 18.4499 0.5 18.0578V3.57709C0.5 3.18494 0.64235 2.84652 0.92705 2.56182C1.21175 2.27712 1.55017 2.13477 1.94232 2.13477H3.78848V1.01167C3.78848 0.836282 3.84723 0.687958 3.96475 0.566692C4.08227 0.445408 4.22899 0.384766 4.40493 0.384766C4.58796 0.384766 4.74091 0.445408 4.86378 0.566692C4.98664 0.687958 5.04808 0.836282 5.04808 1.01167V2.13477H12.9904V0.995142C12.9904 0.817958 13.0482 0.671933 13.1638 0.557066C13.2794 0.4422 13.4229 0.384766 13.5943 0.384766C13.7728 0.384766 13.9219 0.442916 14.0416 0.559216C14.1613 0.675533 14.2211 0.819941 14.2211 0.992441V2.13477H16.0576C16.4498 2.13477 16.7882 2.27712 17.0729 2.56182C17.3576 2.84652 17.5 3.18494 17.5 3.57709V18.0578C17.5 18.4499 17.3576 18.7883 17.0729 19.073C16.7882 19.3577 16.4498 19.5001 16.0576 19.5001H1.94232ZM1.94232 18.3655H16.0576C16.1346 18.3655 16.2051 18.3334 16.2692 18.2693C16.3333 18.2052 16.3654 18.1347 16.3654 18.0578V8.12514H1.6346V18.0578C1.6346 18.1347 1.66665 18.2052 1.73075 18.2693C1.79487 18.3334 1.86539 18.3655 1.94232 18.3655ZM1.6346 6.99057H16.3654V3.57709C16.3654 3.50016 16.3333 3.42963 16.2692 3.36552C16.2051 3.30142 16.1346 3.26937 16.0576 3.26937H1.94232C1.86539 3.26937 1.79487 3.30142 1.73075 3.36552C1.66665 3.42963 1.6346 3.50016 1.6346 3.57709V6.99057ZM8.99998 12.077C8.75511 12.077 8.54646 11.9908 8.37403 11.8184C8.20159 11.646 8.11538 11.4373 8.11538 11.1924C8.11538 10.9476 8.20159 10.7389 8.37403 10.5665C8.54646 10.3941 8.75511 10.3078 8.99998 10.3078C9.24484 10.3078 9.45349 10.3941 9.62593 10.5665C9.79836 10.7389 9.88457 10.9476 9.88457 11.1924C9.88457 11.4373 9.79836 11.646 9.62593 11.8184C9.45349 11.9908 9.24484 12.077 8.99998 12.077ZM4.99998 12.077C4.75511 12.077 4.54646 11.9908 4.37403 11.8184C4.20159 11.646 4.11538 11.4373 4.11538 11.1924C4.11538 10.9476 4.20159 10.7389 4.37403 10.5665C4.54646 10.3941 4.75511 10.3078 4.99998 10.3078C5.24484 10.3078 5.45349 10.3941 5.62593 10.5665C5.79836 10.7389 5.88458 10.9476 5.88458 11.1924C5.88458 11.4373 5.79836 11.646 5.62593 11.8184C5.45349 11.9908 5.24484 12.077 4.99998 12.077ZM13 12.077C12.7551 12.077 12.5465 11.9908 12.374 11.8184C12.2016 11.646 12.1154 11.4373 12.1154 11.1924C12.1154 10.9476 12.2016 10.7389 12.374 10.5665C12.5465 10.3941 12.7551 10.3078 13 10.3078C13.2448 10.3078 13.4535 10.3941 13.6259 10.5665C13.7984 10.7389 13.8846 10.9476 13.8846 11.1924C13.8846 11.4373 13.7984 11.646 13.6259 11.8184C13.4535 11.9908 13.2448 12.077 13 12.077ZM8.99998 16.0001C8.75511 16.0001 8.54646 15.9139 8.37403 15.7415C8.20159 15.569 8.11538 15.3604 8.11538 15.1155C8.11538 14.8706 8.20159 14.662 8.37403 14.4896C8.54646 14.3171 8.75511 14.2309 8.99998 14.2309C9.24484 14.2309 9.45349 14.3171 9.62593 14.4896C9.79836 14.662 9.88457 14.8706 9.88457 15.1155C9.88457 15.3604 9.79836 15.569 9.62593 15.7415C9.45349 15.9139 9.24484 16.0001 8.99998 16.0001ZM4.99998 16.0001C4.75511 16.0001 4.54646 15.9139 4.37403 15.7415C4.20159 15.569 4.11538 15.3604 4.11538 15.1155C4.11538 14.8706 4.20159 14.662 4.37403 14.4896C4.54646 14.3171 4.75511 14.2309 4.99998 14.2309C5.24484 14.2309 5.45349 14.3171 5.62593 14.4896C5.79836 14.662 5.88458 14.8706 5.88458 15.1155C5.88458 15.3604 5.79836 15.569 5.62593 15.7415C5.45349 15.9139 5.24484 16.0001 4.99998 16.0001ZM13 16.0001C12.7551 16.0001 12.5465 15.9139 12.374 15.7415C12.2016 15.569 12.1154 15.3604 12.1154 15.1155C12.1154 14.8706 12.2016 14.662 12.374 14.4896C12.5465 14.3171 12.7551 14.2309 13 14.2309C13.2448 14.2309 13.4535 14.3171 13.6259 14.4896C13.7984 14.662 13.8846 14.8706 13.8846 15.1155C13.8846 15.3604 13.7984 15.569 13.6259 15.7415C13.4535 15.9139 13.2448 16.0001 13 16.0001Z" fill="#90949A"/>
</svg>
