<svg width="16" height="16" viewBox="0 0 18 18" fill="none" xmlns="http://www.w3.org/2000/svg">
<path d="M8.99983 10.0665L1.89726 17.169C1.74855 17.3178 1.57292 17.3943 1.37036 17.3985C1.16778 17.4028 0.987871 17.3263 0.830626 17.169C0.67336 17.0118 0.594727 16.834 0.594727 16.6357C0.594727 16.4374 0.67336 16.2597 0.830626 16.1024L7.93319 8.99983L0.830626 1.89726C0.681893 1.74855 0.605393 1.57292 0.601127 1.37036C0.59686 1.16778 0.67336 0.987872 0.830626 0.830627C0.987871 0.673361 1.16564 0.594727 1.36393 0.594727C1.56222 0.594727 1.73999 0.673361 1.89726 0.830627L8.99983 7.93319L16.1024 0.830627C16.2511 0.681894 16.4267 0.605394 16.6293 0.601127C16.8319 0.59686 17.0118 0.673361 17.169 0.830627C17.3263 0.987872 17.4049 1.16564 17.4049 1.36393C17.4049 1.56222 17.3263 1.73999 17.169 1.89726L10.0665 8.99983L17.169 16.1024C17.3178 16.2511 17.3943 16.4267 17.3985 16.6293C17.4028 16.8319 17.3263 17.0118 17.169 17.169C17.0118 17.3263 16.834 17.4049 16.6357 17.4049C16.4374 17.4049 16.2597 17.3263 16.1024 17.169L8.99983 10.0665Z" fill="black"/>
</svg>
